<svg id="Layer_1" data-name="Layer 1" xmlns="http://www.w3.org/2000/svg" viewBox="0 0 552.35 623.05"><defs><style>.cls-1{fill:#1562ae;}.cls-2{fill:none;stroke:#050606;stroke-miterlimit:10;stroke-width:23px;}</style></defs><rect class="cls-1" width="552.35" height="623.05" rx="196.17"/><path class="cls-2" d="M478.05,270.53,538,187.62l-14.6,72.55-1.46,90.41a39.67,39.67,0,0,1-15.87,26.49l-28,23.67V437c0,83.29-68.15,151.43-151.44,151.43S175.2,520.3,175.2,437h92.28a71.68,71.68,0,0,0,12.82,26.61c3.83,4.94,18.8,22.87,43.66,26.5,35.79,5.24,61-23.73,63.34-26.5,27.46-32.62,13.86-74.39,12.84-77.35-10-29.09-66.16-58.1-73.51-62.86-11.47-7.74-69-43.16-76.18-64-1-3-14.62-44.73,12.84-77.35,2.34-2.77,27.55-31.74,63.34-26.5,24.86,3.63,39.83,21.56,43.66,26.5A67.5,67.5,0,0,1,384,212.25l.34,1.54h93.78c0-83.29-68.15-151.44-151.44-151.44S175.2,130.49,175.2,213.78V273.5l-3.09-4.27-60-82.91,14.6,72.55,1.46,90.41a39.67,39.67,0,0,0,15.87,26.49l31.93,27" transform="translate(-48.91 -13.87)"/></svg>