<?xml version="1.0" encoding="UTF-8" standalone="no"?><svg xmlns="http://www.w3.org/2000/svg" xmlns:xlink="http://www.w3.org/1999/xlink" contentScriptType="application/ecmascript" contentStyleType="text/css" height="324px" preserveAspectRatio="none" style="width:305px;height:324px;" version="1.1" viewBox="0 0 305 324" width="305px" zoomAndPan="magnify"><defs/><g><rect fill="#DDCC77" height="33.9688" style="stroke: #A80036; stroke-width: 1.5;" width="101" x="91.75" y="10"/><text fill="#000000" font-family="sans-serif" font-size="12" lengthAdjust="spacingAndGlyphs" textLength="81" x="101.75" y="31.1387">SpockEngine</text><line style="stroke: #A80036; stroke-width: 1.5;" x1="142.25" x2="142.25" y1="43.9688" y2="63.9688"/><line style="stroke: #A80036; stroke-width: 1.5;" x1="39.5" x2="39.5" y1="63.9688" y2="83.9688"/><rect fill="#DDCC77" height="33.9688" style="stroke: #A80036; stroke-width: 1.5;" width="59" x="10" y="83.9688"/><text fill="#000000" font-family="sans-serif" font-size="12" lengthAdjust="spacingAndGlyphs" textLength="39" x="20" y="105.1074">SpecA</text><line style="stroke: #A80036; stroke-width: 1.5;" x1="39.5" x2="49.5" y1="149.9219" y2="149.9219"/><rect fill="#88CCEE" height="33.9688" rx="5" ry="5" style="stroke: #A80036; stroke-width: 1.5;" width="63" x="49.5" y="132.9375"/><text fill="#000000" font-family="sans-serif" font-size="12" lengthAdjust="spacingAndGlyphs" textLength="43" x="59.5" y="154.0762">TestA1</text><line style="stroke: #A80036; stroke-width: 1.5;" x1="39.5" x2="49.5" y1="198.8906" y2="198.8906"/><rect fill="#88CCEE" height="33.9688" rx="5" ry="5" style="stroke: #A80036; stroke-width: 1.5;" width="63" x="49.5" y="181.9063"/><text fill="#000000" font-family="sans-serif" font-size="12" lengthAdjust="spacingAndGlyphs" textLength="43" x="59.5" y="203.0449">TestA2</text><line style="stroke: #A80036; stroke-width: 1.5;" x1="39.5" x2="39.5" y1="117.9375" y2="198.8906"/><line style="stroke: #A80036; stroke-width: 1.5;" x1="162" x2="162" y1="63.9688" y2="83.9688"/><rect fill="#DDCC77" height="33.9688" style="stroke: #A80036; stroke-width: 1.5;" width="59" x="132.5" y="83.9688"/><text fill="#000000" font-family="sans-serif" font-size="12" lengthAdjust="spacingAndGlyphs" textLength="39" x="142.5" y="105.1074">SpecB</text><line style="stroke: #A80036; stroke-width: 1.5;" x1="162" x2="172" y1="149.9219" y2="149.9219"/><rect fill="#88CCEE" height="33.9688" rx="5" ry="5" style="stroke: #A80036; stroke-width: 1.5;" width="63" x="172" y="132.9375"/><text fill="#000000" font-family="sans-serif" font-size="12" lengthAdjust="spacingAndGlyphs" textLength="43" x="182" y="154.0762">TestB1</text><line style="stroke: #A80036; stroke-width: 1.5;" x1="162" x2="172" y1="198.8906" y2="198.8906"/><rect fill="#88CCEE" height="33.9688" rx="5" ry="5" style="stroke: #A80036; stroke-width: 1.5;" width="63" x="172" y="181.9063"/><text fill="#000000" font-family="sans-serif" font-size="12" lengthAdjust="spacingAndGlyphs" textLength="43" x="182" y="203.0449">TestB2</text><line style="stroke: #A80036; stroke-width: 1.5;" x1="203.5" x2="213.5" y1="247.8594" y2="247.8594"/><rect fill="#88CCEE" height="33.9688" rx="5" ry="5" style="stroke: #A80036; stroke-width: 1.5;" width="81" x="213.5" y="230.875"/><text fill="#000000" font-family="sans-serif" font-size="12" lengthAdjust="spacingAndGlyphs" textLength="61" x="223.5" y="252.0137">TestB2[1]</text><line style="stroke: #A80036; stroke-width: 1.5;" x1="203.5" x2="213.5" y1="296.8281" y2="296.8281"/><rect fill="#88CCEE" height="33.9688" rx="5" ry="5" style="stroke: #A80036; stroke-width: 1.5;" width="81" x="213.5" y="279.8438"/><text fill="#000000" font-family="sans-serif" font-size="12" lengthAdjust="spacingAndGlyphs" textLength="61" x="223.5" y="300.9824">TestB2[2]</text><line style="stroke: #A80036; stroke-width: 1.5;" x1="203.5" x2="203.5" y1="215.875" y2="296.8281"/><line style="stroke: #A80036; stroke-width: 1.5;" x1="162" x2="162" y1="117.9375" y2="198.8906"/><line style="stroke: #A80036; stroke-width: 1.5;" x1="39.5" x2="162" y1="63.9688" y2="63.9688"/><!--MD5=[43a62835f07cff7f9486f80a5aeed648]
@startwbs
<style>
wbsDiagram {
  BackgroundColor #DDCC77
  node {
    :depth(2) {
      BackgroundColor #88CCEE
      RoundCorner 10
    }
    :depth(3) {
      BackgroundColor #88CCEE
      RoundCorner 10
    }
  }
}
</style>
skinparam shadowing false
* SpockEngine
** SpecA
*** TestA1
*** TestA2
** SpecB
*** TestB1
*** TestB2
**** TestB2[1]
**** TestB2[2]
@endwbs

PlantUML version 1.2019.12(Sun Nov 03 10:24:54 UTC 2019)
(APACHE source distribution)
Java Runtime: OpenJDK Runtime Environment
JVM: OpenJDK 64-Bit Server VM
Java Version: 15.0.1+9-18
Operating System: Linux
Default Encoding: UTF-8
Language: en
Country: US
--></g></svg>